<svg id="Layer_1" data-name="Layer 1" xmlns="http://www.w3.org/2000/svg" width="5em" height="5em" viewBox="0 0 819.72 831.84"><defs><style>.cls-1{fill:#bb000e;}</style></defs><path d="M244.16,904q-23.47-20.46-23.46-46.06,0-22.17,16.21-38.38t47.77-16.21a189,189,0,0,1,26,2.13q14.93,2.15,22.61,3a110.13,110.13,0,0,0-9.81-41.8,210.09,210.09,0,0,0-22.61-38q-13.65-18.33-25.59-32-26.44,50.36-52.46,83.6a625.07,625.07,0,0,1-56.72,63.12q-15.36,15.36-32.41,15.35-13.66,0-22.18-9.8T103,824.62q0-17,11.94-31.56L126,779.42q46.9-58,70.8-95.54,14.49-24.74,34.12-66.11t38.38-85.72q16.2-37.53,67.39-37.54,23.87,0,33.27,4.27t9.38,13.65c0,3.41-1.15,8.82-3.41,16.2a123.82,123.82,0,0,1-9.38,22.18q-15.36,30.71-15.36,52,0,12.79,9,28.15t27.72,38.39q27.28,35.82,41.37,61a110.87,110.87,0,0,1,14.07,55,232.79,232.79,0,0,1-1.7,23.88q41.78-16.2,98.09-86.15,10.24-11.94,23-11.94,11.09,0,17.49,10.23t6.4,28.15q0,32.43-16.21,52.89Q527.77,855.34,489,874.53t-96,20.89q-34.12,29-81,29Q267.61,924.43,244.16,904Z" transform="translate(-95.31 -92.59)"/><path d="M915,851.07q0,21.33-19.19,38t-55,16.63q-61.41,0-100.23-38t-38.81-99.37q0-33.27,34.12-47.77,37.53-16.2,53.74-34.55t16.21-44.78q0-15.36-6.4-23t-15.78-7.68q-23,0-50.75,33.27t-51.61,85.73a612.83,612.83,0,0,0-37.53,107.9q-9.4,40.11-21.75,54.16t-38.81,14.08q-26.46,0-38.82-19.19t-16.63-59.29q-4.28-40.08-4.26-117.71,0-131.36,26.87-273.81T629.7,196.39Q682.17,99.6,755.52,99.57q39.22,0,63.55,33.7t24.31,87.43q0,86.16-50.33,178.7T629.28,615.64q-2.56,44.36-2.56,91.27,40.93-106.62,93.83-154.82t99-48.19q42.64,0,68.66,29t26,71.65q0,46.92-23.88,86.15t-81.89,69.95q5.12,25.59,20.9,35.4t50.75,16.63Q915,819.52,915,851.07ZM703.49,228q-18.78,43.95-36.25,118.57T638.66,509a610.2,610.2,0,0,0,87.43-135.62Q760.64,300,760.64,240.32q0-27.28-6-41.8T737.61,184Q722.25,184,703.49,228Z" transform="translate(-95.31 -92.59)"/><path class="cls-1" d="M236.48,897Q213,876.5,213,850.91q0-22.17,16.21-38.39T277,796.31a187.85,187.85,0,0,1,26,2.14q14.91,2.13,22.6,3a109.85,109.85,0,0,0-9.81-41.79,209.35,209.35,0,0,0-22.6-38q-13.66-18.34-25.59-32Q241.16,740,215.16,773.28a625.3,625.3,0,0,1-56.73,63.12Q143.08,851.76,126,851.76q-13.65,0-22.18-9.81t-8.53-24.31q0-17.05,11.94-31.56l11.09-13.65q46.91-58,70.8-95.54,14.49-24.72,34.12-66.1t38.39-85.73q16.19-37.53,67.38-37.53,23.88,0,33.27,4.26t9.38,13.65q0,5.12-3.41,16.21a124.13,124.13,0,0,1-9.38,22.18q-15.36,30.7-15.36,52,0,12.79,9,28.15t27.72,38.38q27.3,35.83,41.37,61a110.77,110.77,0,0,1,14.08,55A233.17,233.17,0,0,1,434,802.28q41.79-16.18,98.1-86.15,10.23-11.93,23-11.94,11.07,0,17.48,10.24t6.4,28.14q0,32.43-16.21,52.89-42.66,52.9-81.46,72.08t-96,20.9q-34.12,29-81,29Q259.93,917.44,236.48,897Z" transform="translate(-95.31 -92.59)"/><path class="cls-1" d="M907.36,844.08q0,21.33-19.2,38t-55,16.63q-61.41,0-100.22-37.95t-38.81-99.38q0-33.27,34.11-47.77Q765.75,697.39,782,679t16.21-44.79q0-15.35-6.4-23T776,603.54q-23,0-50.75,33.26t-51.61,85.73a613.93,613.93,0,0,0-37.53,107.9q-9.39,40.11-21.75,54.17t-38.81,14.07q-26.44,0-38.81-19.19T520.09,820.2q-4.27-40.08-4.26-117.72,0-131.34,26.87-273.81T622,189.4q52.46-96.79,125.81-96.81,39.23,0,63.55,33.69t24.31,87.43q0,86.18-50.32,178.71T621.6,608.65Q619,653,619,699.93q41-106.62,93.83-154.83t99-48.19q42.64,0,68.67,29t26,71.65q0,46.94-23.88,86.16t-81.89,69.94q5.12,25.59,20.9,35.4t50.75,16.64Q907.35,812.54,907.36,844.08ZM695.81,221Q677,264.9,659.56,339.53T631,502A610,610,0,0,0,718.42,366.4Q753,293.05,753,233.33q0-27.29-6-41.79T729.93,177Q714.59,177,695.81,221Z" transform="translate(-95.31 -92.59)"/></svg>